<svg width="56" height="14" viewBox="0 0 56 14" fill="none" xmlns="http://www.w3.org/2000/svg">
<path d="M7.81152 1.04688V11H6.48535L1.47461 3.32324V11H0.155273V1.04688H1.47461L6.50586 8.74414V1.04688H7.81152ZM11.4688 1.04688V11H10.1494V1.04688H11.4688ZM15.6387 5.52441V6.60449H11.1816V5.52441H15.6387ZM16.3154 1.04688V2.12695H11.1816V1.04688H16.3154ZM20.4102 1.92871L17.1152 11H15.7686L19.5625 1.04688H20.4307L20.4102 1.92871ZM23.1719 11L19.8701 1.92871L19.8496 1.04688H20.7178L24.5254 11H23.1719ZM23.001 7.31543V8.39551H17.4092V7.31543H23.001ZM32.8789 6.34473H30.3564L30.3428 5.28516H32.6328C33.0111 5.28516 33.3415 5.22135 33.624 5.09375C33.9066 4.96615 34.1253 4.78385 34.2803 4.54688C34.4398 4.30534 34.5195 4.01823 34.5195 3.68555C34.5195 3.32096 34.4489 3.02474 34.3076 2.79688C34.1709 2.56445 33.959 2.39583 33.6719 2.29102C33.3893 2.18164 33.0293 2.12695 32.5918 2.12695H30.6504V11H29.3311V1.04688H32.5918C33.1022 1.04688 33.5579 1.09928 33.959 1.2041C34.36 1.30436 34.6995 1.46387 34.9775 1.68262C35.2601 1.89681 35.4743 2.17025 35.6201 2.50293C35.766 2.83561 35.8389 3.23438 35.8389 3.69922C35.8389 4.10938 35.734 4.48079 35.5244 4.81348C35.3148 5.1416 35.0231 5.41048 34.6494 5.62012C34.2803 5.82975 33.8473 5.96419 33.3506 6.02344L32.8789 6.34473ZM32.8174 11H29.8369L30.582 9.92676H32.8174C33.2367 9.92676 33.5921 9.85384 33.8838 9.70801C34.18 9.56217 34.4056 9.3571 34.5605 9.09277C34.7155 8.82389 34.793 8.50716 34.793 8.14258C34.793 7.77344 34.7269 7.45443 34.5947 7.18555C34.4626 6.91667 34.2552 6.70931 33.9727 6.56348C33.6901 6.41764 33.3255 6.34473 32.8789 6.34473H30.999L31.0127 5.28516H33.583L33.8633 5.66797C34.3418 5.70898 34.7474 5.8457 35.0801 6.07812C35.4128 6.30599 35.6657 6.59766 35.8389 6.95312C36.0166 7.30859 36.1055 7.70052 36.1055 8.12891C36.1055 8.7487 35.9688 9.27279 35.6953 9.70117C35.4264 10.125 35.0459 10.4486 34.5537 10.6719C34.0615 10.8906 33.4827 11 32.8174 11ZM39.2363 0.5V11H37.9648V0.5H39.2363ZM40.9316 7.38379V7.22656C40.9316 6.69336 41.0091 6.19889 41.1641 5.74316C41.319 5.28288 41.5423 4.88411 41.834 4.54688C42.1257 4.20508 42.4788 3.94076 42.8936 3.75391C43.3083 3.5625 43.7731 3.4668 44.2881 3.4668C44.8076 3.4668 45.2747 3.5625 45.6895 3.75391C46.1087 3.94076 46.4642 4.20508 46.7559 4.54688C47.0521 4.88411 47.2777 5.28288 47.4326 5.74316C47.5876 6.19889 47.665 6.69336 47.665 7.22656V7.38379C47.665 7.91699 47.5876 8.41146 47.4326 8.86719C47.2777 9.32292 47.0521 9.72168 46.7559 10.0635C46.4642 10.4007 46.111 10.665 45.6963 10.8564C45.2861 11.0433 44.8213 11.1367 44.3018 11.1367C43.7822 11.1367 43.3151 11.0433 42.9004 10.8564C42.4857 10.665 42.1302 10.4007 41.834 10.0635C41.5423 9.72168 41.319 9.32292 41.1641 8.86719C41.0091 8.41146 40.9316 7.91699 40.9316 7.38379ZM42.1963 7.22656V7.38379C42.1963 7.75293 42.2396 8.10156 42.3262 8.42969C42.4128 8.75326 42.5426 9.04036 42.7158 9.29102C42.8936 9.54167 43.1146 9.73991 43.3789 9.88574C43.6432 10.027 43.9508 10.0977 44.3018 10.0977C44.6481 10.0977 44.9512 10.027 45.2109 9.88574C45.4753 9.73991 45.694 9.54167 45.8672 9.29102C46.0404 9.04036 46.1702 8.75326 46.2568 8.42969C46.348 8.10156 46.3936 7.75293 46.3936 7.38379V7.22656C46.3936 6.86198 46.348 6.5179 46.2568 6.19434C46.1702 5.86621 46.0381 5.57682 45.8604 5.32617C45.6872 5.07096 45.4684 4.87044 45.2041 4.72461C44.9443 4.57878 44.639 4.50586 44.2881 4.50586C43.9417 4.50586 43.6364 4.57878 43.3721 4.72461C43.1123 4.87044 42.8936 5.07096 42.7158 5.32617C42.5426 5.57682 42.4128 5.86621 42.3262 6.19434C42.2396 6.5179 42.1963 6.86198 42.1963 7.22656ZM54.043 3.60352H55.1914V10.8428C55.1914 11.4945 55.0592 12.0505 54.7949 12.5107C54.5306 12.971 54.1615 13.3197 53.6875 13.5566C53.2181 13.7982 52.6758 13.9189 52.0605 13.9189C51.8053 13.9189 51.5046 13.8779 51.1582 13.7959C50.8164 13.7184 50.4792 13.584 50.1465 13.3926C49.8184 13.2057 49.5426 12.9528 49.3193 12.6338L49.9824 11.8818C50.2923 12.2555 50.6159 12.5153 50.9531 12.6611C51.2949 12.807 51.6322 12.8799 51.9648 12.8799C52.3659 12.8799 52.7122 12.8047 53.0039 12.6543C53.2956 12.5039 53.5212 12.2806 53.6807 11.9844C53.8447 11.6927 53.9268 11.3327 53.9268 10.9043V5.23047L54.043 3.60352ZM48.9502 7.38379V7.24023C48.9502 6.67513 49.0163 6.16243 49.1484 5.70215C49.2852 5.2373 49.4788 4.83854 49.7295 4.50586C49.9847 4.17318 50.2923 3.91797 50.6523 3.74023C51.0124 3.55794 51.418 3.4668 51.8691 3.4668C52.334 3.4668 52.7396 3.54883 53.0859 3.71289C53.4368 3.8724 53.7331 4.1071 53.9746 4.41699C54.2207 4.72233 54.4144 5.09147 54.5557 5.52441C54.6969 5.95736 54.7949 6.44727 54.8496 6.99414V7.62305C54.7995 8.16536 54.7015 8.65299 54.5557 9.08594C54.4144 9.51888 54.2207 9.88802 53.9746 10.1934C53.7331 10.4987 53.4368 10.7334 53.0859 10.8975C52.735 11.057 52.3249 11.1367 51.8555 11.1367C51.4134 11.1367 51.0124 11.0433 50.6523 10.8564C50.2969 10.6696 49.9915 10.4076 49.7363 10.0703C49.4811 9.73307 49.2852 9.33659 49.1484 8.88086C49.0163 8.42057 48.9502 7.92155 48.9502 7.38379ZM50.2148 7.24023V7.38379C50.2148 7.75293 50.2513 8.09928 50.3242 8.42285C50.4017 8.74642 50.5179 9.03125 50.6729 9.27734C50.8324 9.52344 51.0352 9.71712 51.2812 9.8584C51.5273 9.99512 51.8213 10.0635 52.1631 10.0635C52.5824 10.0635 52.9287 9.97461 53.2021 9.79688C53.4756 9.61914 53.6921 9.38444 53.8516 9.09277C54.0156 8.80111 54.1432 8.48438 54.2344 8.14258V6.49512C54.1842 6.24447 54.1068 6.00293 54.002 5.77051C53.9017 5.53353 53.7695 5.32389 53.6055 5.1416C53.446 4.95475 53.2477 4.80664 53.0107 4.69727C52.7738 4.58789 52.4958 4.5332 52.1768 4.5332C51.8304 4.5332 51.5319 4.60612 51.2812 4.75195C51.0352 4.89323 50.8324 5.08919 50.6729 5.33984C50.5179 5.58594 50.4017 5.87305 50.3242 6.20117C50.2513 6.52474 50.2148 6.87109 50.2148 7.24023Z" fill="black"/>
</svg>
