<svg width="68" height="12" viewBox="0 0 68 12" fill="none" xmlns="http://www.w3.org/2000/svg">
<path d="M7.81152 1.04688V11H6.48535L1.47461 3.32324V11H0.155273V1.04688H1.47461L6.50586 8.74414V1.04688H7.81152ZM11.4688 1.04688V11H10.1494V1.04688H11.4688ZM15.6387 5.52441V6.60449H11.1816V5.52441H15.6387ZM16.3154 1.04688V2.12695H11.1816V1.04688H16.3154ZM20.4102 1.92871L17.1152 11H15.7686L19.5625 1.04688H20.4307L20.4102 1.92871ZM23.1719 11L19.8701 1.92871L19.8496 1.04688H20.7178L24.5254 11H23.1719ZM23.001 7.31543V8.39551H17.4092V7.31543H23.001ZM34.6357 8.48438C34.6357 8.25195 34.5993 8.04688 34.5264 7.86914C34.458 7.68685 34.335 7.52279 34.1572 7.37695C33.984 7.23112 33.7425 7.09212 33.4326 6.95996C33.1273 6.8278 32.7399 6.69336 32.2705 6.55664C31.7783 6.41081 31.334 6.24902 30.9375 6.07129C30.541 5.889 30.2015 5.68164 29.9189 5.44922C29.6364 5.2168 29.4199 4.9502 29.2695 4.64941C29.1191 4.34863 29.0439 4.00456 29.0439 3.61719C29.0439 3.22982 29.1237 2.87207 29.2832 2.54395C29.4427 2.21582 29.6706 1.93099 29.9668 1.68945C30.2676 1.44336 30.6253 1.25195 31.04 1.11523C31.4548 0.978516 31.9173 0.910156 32.4277 0.910156C33.1751 0.910156 33.8086 1.05371 34.3281 1.34082C34.8522 1.62337 35.251 1.99479 35.5244 2.45508C35.7979 2.91081 35.9346 3.39844 35.9346 3.91797H34.6221C34.6221 3.54427 34.5423 3.21387 34.3828 2.92676C34.2233 2.63509 33.9818 2.40723 33.6582 2.24316C33.3346 2.07454 32.9245 1.99023 32.4277 1.99023C31.9583 1.99023 31.571 2.06087 31.2656 2.20215C30.9603 2.34342 30.7324 2.53483 30.582 2.77637C30.4362 3.0179 30.3633 3.29362 30.3633 3.60352C30.3633 3.81315 30.4066 4.00456 30.4932 4.17773C30.5843 4.34635 30.7233 4.50358 30.9102 4.64941C31.1016 4.79525 31.3431 4.92969 31.6348 5.05273C31.931 5.17578 32.2842 5.29427 32.6943 5.4082C33.2594 5.56771 33.7471 5.74544 34.1572 5.94141C34.5674 6.13737 34.9046 6.3584 35.1689 6.60449C35.4378 6.84603 35.6361 7.12174 35.7637 7.43164C35.8958 7.73698 35.9619 8.08333 35.9619 8.4707C35.9619 8.8763 35.8799 9.24316 35.7158 9.57129C35.5518 9.89941 35.3171 10.1797 35.0117 10.4121C34.7064 10.6445 34.3395 10.8245 33.9111 10.9521C33.4873 11.0752 33.0133 11.1367 32.4893 11.1367C32.029 11.1367 31.5755 11.0729 31.1289 10.9453C30.6868 10.8177 30.2835 10.6263 29.9189 10.3711C29.5589 10.1159 29.2695 9.80143 29.0508 9.42773C28.8366 9.04948 28.7295 8.61198 28.7295 8.11523H30.042C30.042 8.45703 30.1081 8.75098 30.2402 8.99707C30.3724 9.23861 30.5524 9.43913 30.7803 9.59863C31.0127 9.75814 31.2747 9.87663 31.5664 9.9541C31.8626 10.027 32.1702 10.0635 32.4893 10.0635C32.9495 10.0635 33.3392 9.99967 33.6582 9.87207C33.9772 9.74447 34.2188 9.56217 34.3828 9.3252C34.5514 9.08822 34.6357 8.80794 34.6357 8.48438ZM40.5488 3.60352V4.57422H36.5498V3.60352H40.5488ZM37.9033 1.80566H39.168V9.16797C39.168 9.41862 39.2067 9.60775 39.2842 9.73535C39.3617 9.86296 39.4619 9.94727 39.585 9.98828C39.708 10.0293 39.8402 10.0498 39.9814 10.0498C40.0863 10.0498 40.1956 10.0407 40.3096 10.0225C40.4281 9.99967 40.5169 9.98145 40.5762 9.96777L40.583 11C40.4827 11.0319 40.3506 11.0615 40.1865 11.0889C40.027 11.1208 39.8333 11.1367 39.6055 11.1367C39.2956 11.1367 39.0107 11.0752 38.751 10.9521C38.4912 10.8291 38.2839 10.624 38.1289 10.3369C37.9785 10.0452 37.9033 9.65332 37.9033 9.16113V1.80566ZM46.5576 9.29102V3.60352H47.8291V11H46.6191L46.5576 9.29102ZM46.7969 7.73242L47.3232 7.71875C47.3232 8.21094 47.2708 8.66667 47.166 9.08594C47.0658 9.50065 46.9017 9.86068 46.6738 10.166C46.446 10.4714 46.1475 10.7106 45.7783 10.8838C45.4092 11.0524 44.9603 11.1367 44.4316 11.1367C44.0716 11.1367 43.7412 11.0843 43.4404 10.9795C43.1442 10.8747 42.889 10.7129 42.6748 10.4941C42.4606 10.2754 42.2943 9.99056 42.1758 9.63965C42.0618 9.28874 42.0049 8.86719 42.0049 8.375V3.60352H43.2695V8.38867C43.2695 8.72135 43.306 8.99707 43.3789 9.21582C43.4564 9.43001 43.5589 9.60091 43.6865 9.72852C43.8187 9.85156 43.9645 9.93815 44.124 9.98828C44.2881 10.0384 44.4567 10.0635 44.6299 10.0635C45.1676 10.0635 45.5938 9.96094 45.9082 9.75586C46.2227 9.54622 46.4482 9.26595 46.585 8.91504C46.7262 8.55957 46.7969 8.16536 46.7969 7.73242ZM54.4189 9.56445V0.5H55.6904V11H54.5283L54.4189 9.56445ZM49.4424 7.38379V7.24023C49.4424 6.67513 49.5107 6.16243 49.6475 5.70215C49.7887 5.2373 49.987 4.83854 50.2422 4.50586C50.502 4.17318 50.8096 3.91797 51.165 3.74023C51.5251 3.55794 51.9261 3.4668 52.3682 3.4668C52.833 3.4668 53.2386 3.54883 53.585 3.71289C53.9359 3.8724 54.2321 4.1071 54.4736 4.41699C54.7197 4.72233 54.9134 5.09147 55.0547 5.52441C55.196 5.95736 55.2939 6.44727 55.3486 6.99414V7.62305C55.2985 8.16536 55.2005 8.65299 55.0547 9.08594C54.9134 9.51888 54.7197 9.88802 54.4736 10.1934C54.2321 10.4987 53.9359 10.7334 53.585 10.8975C53.234 11.057 52.8239 11.1367 52.3545 11.1367C51.9215 11.1367 51.5251 11.0433 51.165 10.8564C50.8096 10.6696 50.502 10.4076 50.2422 10.0703C49.987 9.73307 49.7887 9.33659 49.6475 8.88086C49.5107 8.42057 49.4424 7.92155 49.4424 7.38379ZM50.7139 7.24023V7.38379C50.7139 7.75293 50.7503 8.09928 50.8232 8.42285C50.9007 8.74642 51.0192 9.03125 51.1787 9.27734C51.3382 9.52344 51.541 9.71712 51.7871 9.8584C52.0332 9.99512 52.3271 10.0635 52.6689 10.0635C53.0882 10.0635 53.4323 9.97461 53.7012 9.79688C53.9746 9.61914 54.1934 9.38444 54.3574 9.09277C54.5215 8.80111 54.6491 8.48438 54.7402 8.14258V6.49512C54.6855 6.24447 54.6058 6.00293 54.501 5.77051C54.4007 5.53353 54.2686 5.32389 54.1045 5.1416C53.945 4.95475 53.7467 4.80664 53.5098 4.69727C53.2773 4.58789 53.0016 4.5332 52.6826 4.5332C52.3363 4.5332 52.0378 4.60612 51.7871 4.75195C51.541 4.89323 51.3382 5.08919 51.1787 5.33984C51.0192 5.58594 50.9007 5.87305 50.8232 6.20117C50.7503 6.52474 50.7139 6.87109 50.7139 7.24023ZM59.0332 3.60352V11H57.7617V3.60352H59.0332ZM57.666 1.6416C57.666 1.43652 57.7275 1.26335 57.8506 1.12207C57.9782 0.980794 58.165 0.910156 58.4111 0.910156C58.6527 0.910156 58.8372 0.980794 58.9648 1.12207C59.097 1.26335 59.1631 1.43652 59.1631 1.6416C59.1631 1.83757 59.097 2.00618 58.9648 2.14746C58.8372 2.28418 58.6527 2.35254 58.4111 2.35254C58.165 2.35254 57.9782 2.28418 57.8506 2.14746C57.7275 2.00618 57.666 1.83757 57.666 1.6416ZM60.7285 7.38379V7.22656C60.7285 6.69336 60.806 6.19889 60.9609 5.74316C61.1159 5.28288 61.3392 4.88411 61.6309 4.54688C61.9225 4.20508 62.2757 3.94076 62.6904 3.75391C63.1051 3.5625 63.57 3.4668 64.085 3.4668C64.6045 3.4668 65.0716 3.5625 65.4863 3.75391C65.9056 3.94076 66.2611 4.20508 66.5527 4.54688C66.849 4.88411 67.0745 5.28288 67.2295 5.74316C67.3844 6.19889 67.4619 6.69336 67.4619 7.22656V7.38379C67.4619 7.91699 67.3844 8.41146 67.2295 8.86719C67.0745 9.32292 66.849 9.72168 66.5527 10.0635C66.2611 10.4007 65.9079 10.665 65.4932 10.8564C65.083 11.0433 64.6182 11.1367 64.0986 11.1367C63.5791 11.1367 63.112 11.0433 62.6973 10.8564C62.2826 10.665 61.9271 10.4007 61.6309 10.0635C61.3392 9.72168 61.1159 9.32292 60.9609 8.86719C60.806 8.41146 60.7285 7.91699 60.7285 7.38379ZM61.9932 7.22656V7.38379C61.9932 7.75293 62.0365 8.10156 62.123 8.42969C62.2096 8.75326 62.3395 9.04036 62.5127 9.29102C62.6904 9.54167 62.9115 9.73991 63.1758 9.88574C63.4401 10.027 63.7477 10.0977 64.0986 10.0977C64.445 10.0977 64.748 10.027 65.0078 9.88574C65.2721 9.73991 65.4909 9.54167 65.6641 9.29102C65.8372 9.04036 65.9671 8.75326 66.0537 8.42969C66.1449 8.10156 66.1904 7.75293 66.1904 7.38379V7.22656C66.1904 6.86198 66.1449 6.5179 66.0537 6.19434C65.9671 5.86621 65.835 5.57682 65.6572 5.32617C65.484 5.07096 65.2653 4.87044 65.001 4.72461C64.7412 4.57878 64.4359 4.50586 64.085 4.50586C63.7386 4.50586 63.4333 4.57878 63.1689 4.72461C62.9092 4.87044 62.6904 5.07096 62.5127 5.32617C62.3395 5.57682 62.2096 5.86621 62.123 6.19434C62.0365 6.5179 61.9932 6.86198 61.9932 7.22656Z" fill="black"/>
</svg>
